<svg width="54" height="42" viewBox="0 0 54 42" fill="none" xmlns="http://www.w3.org/2000/svg">
<path d="M53.6943 11.3492C53.5388 11.1727 53.3324 11.0287 53.0926 10.9293C52.8529 10.8298 52.5866 10.7778 52.3164 10.7777H16.3224L13.5977 3.2738C12.5293 0.318982 9.99031 0 8.94897 0H1.68418C0.753022 0 0 0.60207 0 1.34501C0 2.08795 0.75387 2.68997 1.68412 2.68997H8.94807C9.17788 2.68997 9.87917 2.68997 10.3575 4.00992L19.7304 31.5203C19.9339 32.1007 20.5962 32.5016 21.3517 32.5016H44.246C44.9566 32.5016 45.5909 32.146 45.8309 31.6117L53.9005 12.5777C54.0862 12.1653 54.009 11.7061 53.6944 11.3492H53.6943ZM43.0608 29.8123H22.63L17.269 13.4684H49.922L43.0608 29.8123ZM39.7206 35.2276C37.3784 35.2276 35.4806 36.7432 35.4806 38.6138C35.4806 40.4843 37.3784 42 39.7206 42C42.0627 42 43.9605 40.4843 43.9605 38.6138C43.9605 36.7432 42.0627 35.2276 39.7206 35.2276ZM24.4566 35.2276C22.1144 35.2276 20.2166 36.7432 20.2166 38.6138C20.2166 40.4843 22.1144 42 24.4566 42C26.7988 42 28.6966 40.4843 28.6966 38.6138C28.6966 36.7432 26.7988 35.2276 24.4566 35.2276Z" fill="#C567E6"/>
</svg>
