<svg width="55" height="53" viewBox="0 0 55 53" fill="none" xmlns="http://www.w3.org/2000/svg">
<path d="M15.95 0H39.05C47.85 0 55 6.825 55 15.225V37.275C55 41.3129 53.3196 45.1855 50.3284 48.0407C47.3371 50.8959 43.2802 52.5 39.05 52.5H15.95C7.15 52.5 0 45.675 0 37.275V15.225C0 11.1871 1.68044 7.31454 4.67165 4.4593C7.66285 1.60406 11.7198 0 15.95 0ZM15.4 5.25C12.7744 5.25 10.2563 6.24562 8.39964 8.01784C6.54303 9.79006 5.5 12.1937 5.5 14.7V37.8C5.5 43.0237 9.9275 47.25 15.4 47.25H39.6C42.2256 47.25 44.7437 46.2544 46.6004 44.4822C48.457 42.7099 49.5 40.3063 49.5 37.8V14.7C49.5 9.47625 45.0725 5.25 39.6 5.25H15.4ZM41.9375 9.1875C42.8492 9.1875 43.7235 9.5332 44.3682 10.1486C45.0128 10.7639 45.375 11.5985 45.375 12.4688C45.375 13.339 45.0128 14.1736 44.3682 14.7889C43.7235 15.4043 42.8492 15.75 41.9375 15.75C41.0258 15.75 40.1515 15.4043 39.5068 14.7889C38.8622 14.1736 38.5 13.339 38.5 12.4688C38.5 11.5985 38.8622 10.7639 39.5068 10.1486C40.1515 9.5332 41.0258 9.1875 41.9375 9.1875ZM27.5 13.125C31.1467 13.125 34.6441 14.5078 37.2227 16.9692C39.8013 19.4306 41.25 22.769 41.25 26.25C41.25 29.731 39.8013 33.0694 37.2227 35.5308C34.6441 37.9922 31.1467 39.375 27.5 39.375C23.8533 39.375 20.3559 37.9922 17.7773 35.5308C15.1987 33.0694 13.75 29.731 13.75 26.25C13.75 22.769 15.1987 19.4306 17.7773 16.9692C20.3559 14.5078 23.8533 13.125 27.5 13.125ZM27.5 18.375C25.312 18.375 23.2135 19.2047 21.6664 20.6815C20.1192 22.1584 19.25 24.1614 19.25 26.25C19.25 28.3386 20.1192 30.3416 21.6664 31.8185C23.2135 33.2953 25.312 34.125 27.5 34.125C29.688 34.125 31.7865 33.2953 33.3336 31.8185C34.8808 30.3416 35.75 28.3386 35.75 26.25C35.75 24.1614 34.8808 22.1584 33.3336 20.6815C31.7865 19.2047 29.688 18.375 27.5 18.375Z" fill="#C567E5"/>
</svg>
